<svg width="20" height="20" viewBox="0 0 20 20" fill="none" xmlns="http://www.w3.org/2000/svg">
<path d="M14 4.99956C14 4.44727 14.4477 3.99956 15 3.99956C15.5523 3.99956 16 4.44727 16 4.99956C16 5.55184 15.5523 5.99956 15 5.99956C14.4477 5.99956 14 5.55184 14 4.99956Z" fill="#828282"/>
<path fill-rule="evenodd" clip-rule="evenodd" d="M10 5.24956C7.37665 5.24956 5.25 7.3762 5.25 9.99956C5.25 12.6229 7.37665 14.7496 10 14.7496C12.6234 14.7496 14.75 12.6229 14.75 9.99956C14.75 7.3762 12.6234 5.24956 10 5.24956ZM6.75 9.99956C6.75 8.20463 8.20507 6.74956 10 6.74956C11.7949 6.74956 13.25 8.20463 13.25 9.99956C13.25 11.7945 11.7949 13.2496 10 13.2496C8.20507 13.2496 6.75 11.7945 6.75 9.99956Z" fill="#828282"/>
<path fill-rule="evenodd" clip-rule="evenodd" d="M15.2583 0.832573C11.7917 0.445132 8.20834 0.445132 4.74177 0.832573C2.72971 1.05745 1.10538 2.64246 0.868826 4.66499C0.454288 8.20929 0.454288 11.7898 0.868826 15.3341C1.10538 17.3567 2.72971 18.9417 4.74177 19.1665C8.20835 19.554 11.7917 19.554 15.2583 19.1665C17.2703 18.9417 18.8946 17.3567 19.1312 15.3341C19.5457 11.7898 19.5457 8.20929 19.1312 4.66499C18.8946 2.64246 17.2703 1.05745 15.2583 0.832573ZM4.90838 2.32329C8.26423 1.94823 11.7358 1.94823 15.0916 2.32329C16.4218 2.47195 17.4872 3.52156 17.6414 4.83924C18.0424 8.26777 18.0424 11.7313 17.6414 15.1599C17.4872 16.4775 16.4218 17.5272 15.0916 17.6758C11.7358 18.0509 8.26423 18.0509 4.90838 17.6758C3.57827 17.5272 2.51278 16.4775 2.35867 15.1599C1.95767 11.7313 1.95767 8.26777 2.35867 4.83924C2.51278 3.52156 3.57827 2.47195 4.90838 2.32329Z" fill="#828282"/>
</svg>
