<svg width="22" height="19" viewBox="0 0 22 19" fill="none" xmlns="http://www.w3.org/2000/svg">
<path fill-rule="evenodd" clip-rule="evenodd" d="M14.0215 0.343645C14.5299 0.256563 15.0992 0.227487 15.6349 0.318129C16.5918 0.480012 17.4756 0.924741 18.1743 1.5915C18.631 1.60183 19.0798 1.51186 19.4769 1.38359C19.8131 1.27504 20.097 1.14397 20.2959 1.04033C20.3948 0.988803 20.4713 0.944845 20.5209 0.915085C20.5457 0.900229 20.5638 0.888984 20.5745 0.882193L20.584 0.876132C20.8808 0.678404 21.276 0.716887 21.5289 0.968393C21.7818 1.21996 21.8226 1.61488 21.6263 1.91278C21.4186 2.22807 21.1303 2.79015 20.8072 3.4199C20.7564 3.51892 20.7047 3.61962 20.6524 3.72129C20.4671 4.08125 20.2771 4.44507 20.1 4.7572C19.9888 4.95318 19.8699 5.15216 19.75 5.3241V5.59788C19.7576 6.6035 19.6423 7.60389 19.4082 8.57711C19.2609 9.18945 19.0667 9.79104 18.8264 10.3764C18.204 11.8931 17.2856 13.2705 16.1249 14.4283C14.9641 15.586 13.5844 16.5009 12.0661 17.1194C10.5492 17.7374 8.92444 18.0472 7.28659 18.0308C4.91228 18.0328 2.58791 17.3488 0.593194 16.0608C0.299393 15.8711 0.175694 15.5036 0.295031 15.1748C0.414367 14.8461 0.74506 14.6435 1.09213 14.6864C1.39249 14.7236 1.6949 14.7418 1.99756 14.7408C3.08501 14.7377 4.15174 14.4975 5.12561 14.0448C4.81606 13.9039 4.52052 13.7301 4.24437 13.5254C3.43265 12.9235 2.82874 12.0835 2.51667 11.1224C2.43558 10.8726 2.49102 10.5986 2.66283 10.4001C2.66591 10.3965 2.66902 10.393 2.67215 10.3895C2.48862 10.2258 2.3169 10.0477 2.1588 9.85602C1.44748 8.99382 1.05581 7.91239 1.05002 6.79465L1.05 6.79077L1.05001 6.74077C1.05001 6.47491 1.19077 6.22891 1.41997 6.09419C1.47807 6.06004 1.53965 6.03433 1.603 6.01709C1.26467 5.34201 1.08873 4.59656 1.09001 3.84031C1.08961 2.98354 1.31341 2.14157 1.73917 1.39807C1.86208 1.18343 2.08291 1.0432 2.32944 1.02322C2.57597 1.00324 2.8165 1.1061 2.97236 1.29814C3.93491 2.48416 5.1362 3.45441 6.49819 4.14588C7.19833 4.50134 7.93288 4.77903 8.68867 4.97547C9.11241 5.0856 9.54282 5.17018 9.97759 5.22861C9.95844 4.50535 10.1013 3.78248 10.401 3.11455C10.8407 2.13473 11.5931 1.32855 12.5404 0.822456C12.9415 0.608128 13.474 0.437416 14.0215 0.343645ZM2.74329 7.89114C2.87294 8.25603 3.0658 8.59835 3.31586 8.90145C3.80718 9.49699 4.48913 9.90455 5.24635 10.0552C5.58363 10.1223 5.83207 10.4102 5.84909 10.7536C5.86612 11.0971 5.64737 11.4082 5.31837 11.5083C5.04588 11.5912 4.7667 11.649 4.48434 11.6811C4.67092 11.9216 4.8904 12.137 5.13781 12.3205C5.699 12.7366 6.37594 12.9675 7.07445 12.9809C7.39137 12.987 7.67023 13.1917 7.77106 13.4922C7.87189 13.7927 7.7729 14.1242 7.5238 14.3202C6.47463 15.1457 5.26143 15.7214 3.97588 16.0153C5.04136 16.3565 6.15881 16.5321 7.2891 16.5308L7.2978 16.5308C8.73786 16.5457 10.1665 16.2736 11.5002 15.7303C12.8339 15.1869 14.0459 14.3833 15.0656 13.3663C16.0852 12.3492 16.892 11.1392 17.4387 9.80693C17.6498 9.2927 17.8204 8.76424 17.9498 8.22633C18.1556 7.37057 18.257 6.4909 18.25 5.60663L18.25 5.60077V5.07077C18.25 4.88892 18.3161 4.71326 18.4359 4.57649C18.5052 4.49744 18.6264 4.31489 18.7954 4.01699C18.956 3.73386 19.1338 3.39395 19.3187 3.03477C19.3299 3.01305 19.3411 2.99121 19.3524 2.96928C18.8728 3.07342 18.3293 3.12801 17.7594 3.06643C17.579 3.04692 17.4117 2.96264 17.2887 2.8292C16.7858 2.28386 16.1161 1.92085 15.3847 1.79711C15.0602 1.74221 14.6678 1.75478 14.2747 1.82211C13.8476 1.89527 13.4759 2.02329 13.2472 2.14546C12.593 2.49503 12.0732 3.05188 11.7695 3.72866C11.4658 4.40545 11.3953 5.16389 11.5691 5.88505C11.6245 6.11496 11.5683 6.35754 11.4173 6.53957C11.2663 6.7216 11.0383 6.82176 10.8021 6.80981C9.95871 6.76715 9.12423 6.6385 8.31135 6.42723C7.45146 6.20374 6.61572 5.8878 5.81915 5.48338C4.64637 4.88797 3.57832 4.11088 2.65348 3.18319C2.61129 3.3988 2.58987 3.61883 2.59001 3.84027L2.59001 3.84219C2.58897 4.39291 2.72412 4.93534 2.98343 5.42119C3.24274 5.90704 3.61816 6.32123 4.07627 6.62689C4.35429 6.81239 4.47602 7.15947 4.37477 7.47798C4.27351 7.7965 3.97372 8.00958 3.63962 8.00049C3.33702 7.99226 3.03696 7.95546 2.74329 7.89114Z" fill="#828282"/>
</svg>
